<svg width="35" height="58" viewBox="0 0 35 58" fill="none" xmlns="http://www.w3.org/2000/svg">
<path d="M32.0377 0H2.96231C1.3273 0 0 1.30348 0 2.90917V55.0908C0 56.6985 1.3273 58 2.96231 58H32.0377C33.6727 58 35 56.6985 35 55.0908V2.90917C35 1.30348 33.6727 0 32.0377 0ZM32.8131 55.0908C32.8131 55.5099 32.4664 55.8504 32.0397 55.8504H2.96436C2.53766 55.8504 2.19096 55.5099 2.19096 55.0908V45.1183H32.8152V55.0908H32.8131ZM32.8131 42.9686H2.18891V8.63483H32.8131V42.9686ZM32.8131 6.4872H2.18891V2.90917C2.18891 2.49012 2.53561 2.14763 2.96231 2.14763H32.0377C32.4644 2.14763 32.8111 2.49012 32.8111 2.90917V6.4872H32.8131Z" fill="black"/>
<path d="M14 49H21V51H14V49Z" fill="black"/>
</svg>
