<svg width="49" height="56" viewBox="0 0 49 56" fill="none" xmlns="http://www.w3.org/2000/svg">
<path d="M48.818 23.0144L27.5018 1.26962C26.7004 0.451961 25.6342 0 24.5 0C23.3658 0 22.2996 0.450085 21.4982 1.26962L0 23.1982V56H49V23.2019L48.818 23.0162V23.0144ZM3.13971 22.8231L22.8842 2.68176C23.7482 1.80034 25.2537 1.80034 26.1176 2.68176L46.7904 23.7739L32.7022 38.1466L27.5018 32.8412C26.7004 32.0236 25.6342 31.5716 24.5 31.5716C23.3658 31.5716 22.2996 32.0236 21.4982 32.8412L16.2206 38.2235L2.13235 23.8508L3.13971 22.8231ZM14.8346 39.6356L14.6893 39.7857L14.6875 39.7838L1.9614 52.7669V26.5025L14.8364 39.6356H14.8346ZM3.5239 53.999L4.57721 52.9244H4.58088L22.8842 34.2534C23.7482 33.372 25.2537 33.372 26.1176 34.2534L45.4761 53.999H3.5239ZM47.0404 27.1927V52.7688L34.0882 39.5606L47.0404 26.3469V27.1927Z" fill="black"/>
</svg>
